<?xml version="1.0" encoding="utf-8"?>
<svg version="1.1" id="Layer_1" xmlns="http://www.w3.org/2000/svg" xmlns:xlink="http://www.w3.org/1999/xlink" x="0px" y="0px"
	 viewBox="0 0 32 32" style="enable-background:new 0 0 32 32;" xml:space="preserve">
<style type="text/css">
	.st0{fill:#633001;}
	.st1{fill:#FEDC90;}
	.st2{fill:#D1884F;}
	.st3{fill:#633001;}
</style>
<path class="st0" d="M16,0C7.2,0,0,7.2,0,16s7.2,16,16,16s16-7.2,16-16S24.8,0,16,0z"/>
<path class="st1" d="M25.8,14.5c-0.4-0.4-0.9-0.6-1.4-0.6c-0.9,0-1.7,0.5-2.1,1.3c-0.4,0.8-0.3,1.7,0.2,2.4c0.3,0.4,0.4,0.9,0.3,1.4
	c-0.1,0.5-0.4,0.9-0.8,1.2c-0.6,0.4-1.3,0.5-2,0.3c-0.7-0.2-1.2-0.7-1.4-1.4c-0.2-0.6-0.1-1.3,0.3-1.8c0.5-0.7,0.6-1.6,0.2-2.4
	s-1.2-1.3-2.1-1.3c-0.5,0-1,0.2-1.4,0.6c-0.5,0.5-0.8,1.2-0.7,1.9c0.1,0.7,0.5,1.3,1.1,1.7c0.6,0.4,0.9,1,0.9,1.7s-0.3,1.3-0.9,1.7
	c-0.6,0.4-1,1-1.1,1.7c-0.1,0.7,0.2,1.4,0.7,1.9c0.4,0.4,0.9,0.6,1.4,0.6c0.9,0,1.7-0.5,2.1-1.3c0.4-0.8,0.3-1.7-0.2-2.4
	c-0.3-0.4-0.4-0.9-0.3-1.4c0.1-0.5,0.4-0.9,0.8-1.2c0.6-0.4,1.3-0.5,2-0.3c0.7,0.2,1.2,0.7,1.4,1.4c0.2,0.6,0.1,1.3-0.3,1.8
	c-0.5,0.7-0.6,1.6-0.2,2.4c0.4,0.8,1.2,1.3,2.1,1.3c0.5,0,1-0.2,1.4-0.6c0.5-0.5,0.8-1.2,0.7-1.9c-0.1-0.7-0.5-1.3-1.1-1.7
	c-0.6-0.4-0.9-1-0.9-1.7s0.3-1.3,0.9-1.7c0.6-0.4,1-1,1.1-1.7C26.6,15.7,26.3,15,25.8,14.5z"/>
<path class="st2" d="M16,18.9c-1.6,0-2.9-1.3-2.9-2.9s1.3-2.9,2.9-2.9s2.9,1.3,2.9,2.9S17.6,18.9,16,18.9z"/>
<path class="st3" d="M16,14.1c1,0,1.9,0.8,1.9,1.9s-0.8,1.9-1.9,1.9s-1.9-0.8-1.9-1.9S15,14.1,16,14.1z"/>
</svg>
